<?xml version="1.0" standalone="no"?>
<!DOCTYPE svg PUBLIC "-//W3C//DTD SVG 20010904//EN"
 "http://www.w3.org/TR/2001/REC-SVG-20010904/DTD/svg10.dtd">
<svg version="1.0" xmlns="http://www.w3.org/2000/svg"
 width="729.000000pt" height="729.000000pt" viewBox="0 0 729.000000 729.000000"
 preserveAspectRatio="xMidYMid meet">
<metadata>
Created by potrace 1.14, written by Peter Selinger 2001-2017
</metadata>
<g transform="translate(0.000000,729.000000) scale(0.100000,-0.100000)"
fill="#000000" stroke="none">
<path d="M1815 5460 l-1820 -1820 1823 -1823 1822 -1822 1822 1822 1823 1823
-1820 1820 c-1001 1001 -1822 1820 -1825 1820 -3 0 -824 -819 -1825 -1820z
m3570 -80 l1740 -1740 -1743 -1743 -1742 -1742 -1742 1742 -1743 1743 1740
1740 c957 957 1742 1740 1745 1740 3 0 788 -783 1745 -1740z"/>
<path d="M1090 4144 c0 -177 2 -195 17 -192 9 2 23 24 33 53 43 127 114 226
191 265 46 24 149 42 217 38 l53 -3 0 -725 0 -725 -96 -3 c-75 -2 -95 -6 -95
-17 0 -13 49 -15 350 -15 301 0 350 2 350 15 0 11 -20 15 -95 17 l-96 3 0 725
0 725 53 3 c69 4 171 -14 219 -39 78 -39 144 -131 189 -264 10 -29 24 -51 33
-53 15 -3 17 15 17 192 l0 196 -670 0 -670 0 0 -196z"/>
<path d="M2610 4325 c0 -12 17 -15 95 -15 l95 0 0 -730 0 -730 -95 0 c-78 0
-95 -3 -95 -15 0 -13 82 -15 675 -15 l675 0 0 241 c0 220 -1 240 -17 237 -11
-2 -21 -21 -29 -53 -36 -138 -144 -286 -251 -342 -84 -45 -141 -53 -358 -53
l-195 0 0 730 0 730 100 0 c82 0 100 3 100 15 0 13 -46 15 -350 15 -304 0
-350 -2 -350 -15z"/>
<path d="M4026 4325 c5 -12 25 -15 90 -15 46 0 84 -1 84 -2 0 -2 119 -349 263
-773 l263 -770 34 0 35 0 175 497 c96 274 177 498 180 498 3 0 74 -201 159
-448 212 -614 186 -552 224 -552 l32 0 139 393 c76 215 199 564 273 774 l136
382 83 3 c46 2 85 8 87 13 1 6 -70 11 -195 13 -172 2 -198 0 -198 -13 0 -12
16 -15 90 -15 50 0 90 -2 90 -4 0 -6 -365 -1051 -381 -1092 -11 -28 -13 -24
-54 96 -24 69 -107 312 -185 540 -78 228 -145 425 -147 438 -5 22 -4 22 91 22
79 0 96 3 96 15 0 13 -42 15 -320 15 -278 0 -320 -2 -320 -15 0 -12 13 -15 58
-15 l58 0 83 -244 83 -245 -107 -308 c-60 -169 -111 -311 -114 -315 -5 -6
-382 1085 -381 1105 0 4 34 7 75 7 60 0 75 3 75 15 0 13 -43 15 -330 15 -289
0 -329 -2 -324 -15z"/>
</g>
</svg>
